# xmcd CD database generated by RipIT
#
# Track frame offsets:
# 182
# 26270
# 44622
# 65095
# 87020
# 108272
# 125195
# 142450
# 162910
#
# Disc length: 2415 seconds
#
# Revision: 15
# Processed by: cddbd v1.5.2PL0 Copyright (c) Steve Scherf et al.
# Submitted via: RipIT 3.9.0 www.suwald.com/ripit/ripit.html on 2016-11-20 at 18:18
#
DISCID=82096d09
DTITLE=ABBA - The Album
DYEAR=1977
DGENRE=Pop
TTITLE0=Eagle
TTITLE1=Take A Chance On Me
TTITLE2=One Man, One Woman
TTITLE3=The Name Of The Game
TTITLE4=Move On
TTITLE5=Hole In Your Soul
TTITLE6=The Girl With The Golden Hair - A. Thank You For The Music
TTITLE7=The Girl With The Golden Hair - B. I Wonder (Departure)
TTITLE8=The Girl With The Golden Hair - C. I'm A Marionette
EXTD=
EXTT0=
EXTT1=
EXTT2=
EXTT3=
EXTT4=
EXTT5=
EXTT6=
EXTT7=
EXTT8=
PLAYORDER=
